<?xml version="1.0" encoding="utf-8"?>
<!-- Generator: Adobe Illustrator 23.1.0, SVG Export Plug-In . SVG Version: 6.00 Build 0)  -->
<svg version="1.1" id="Camada_1" xmlns="http://www.w3.org/2000/svg" xmlns:xlink="http://www.w3.org/1999/xlink" x="0px" y="0px"
	 viewBox="0 0 330.1 330.2" style="enable-background:new 0 0 330.1 330.2;" xml:space="preserve">
<style type="text/css">
	.st0{fill:#454545;}
	.st1{fill:#8D8D8D;}
	.st2{fill:#606060;}
</style>
<g>
	<path class="st0" d="M159.5,12.1c-0.6,0.9-1.6,0.5-2.4,0.5c-0.2-0.1-0.2-0.3-0.2-0.4c0.1-0.1,0.1-0.2,0.2-0.2
		C157.9,12.1,158.7,12.1,159.5,12.1z"/>
	<path class="st0" d="M172.7,12.6c-0.8,0-1.8,0.4-2.4-0.5c0.8,0,1.6,0,2.4,0c0.2,0.1,0.3,0.2,0.2,0.3
		C172.8,12.6,172.8,12.6,172.7,12.6z"/>
	<path class="st0" d="M12.6,157.1c0,0.8,0.4,1.8-0.5,2.4c0-0.8,0-1.6,0-2.4C12.3,156.9,12.5,156.9,12.6,157.1z"/>
	<path class="st0" d="M12.1,170.3c0.9,0.6,0.5,1.6,0.5,2.4c-0.2,0.2-0.4,0.2-0.5,0C12.1,171.9,12.1,171.1,12.1,170.3z"/>
	<path class="st1" d="M155.9,12.6c-0.5,0-1,0.2-1.2-0.5c0.4,0,0.8,0,1.2,0c0.2,0.1,0.3,0.2,0.2,0.4C156.1,12.6,156,12.6,155.9,12.6z
		"/>
	<path class="st2" d="M155.9,12.6c0-0.2,0-0.3,0-0.5c0.4,0,0.8,0,1.2,0c0,0.2,0,0.4,0,0.6C156.7,12.6,156.3,12.6,155.9,12.6z"/>
	<path class="st2" d="M172.7,12.6c0-0.2,0-0.4,0-0.5c0.4,0,0.8,0,1.2,0c0.2,0.1,0.3,0.2,0.2,0.3c-0.1,0.1-0.1,0.2-0.2,0.2
		C173.5,12.6,173.1,12.6,172.7,12.6z"/>
	<path class="st1" d="M173.9,12.6c0-0.2,0-0.3,0-0.5c0.4,0,0.8,0,1.2,0C174.9,12.9,174.4,12.7,173.9,12.6z"/>
	<path class="st1" d="M12.1,154.8c0.7,0.1,0.6,0.7,0.5,1.2c-0.2,0.3-0.3,0.3-0.5,0C12.1,155.6,12.1,155.2,12.1,154.8z"/>
	<path class="st2" d="M12.1,156c0.2,0,0.3,0,0.5,0c0,0.4,0,0.8,0,1.2c-0.2,0-0.4,0-0.5,0C12.1,156.8,12.1,156.4,12.1,156z"/>
	<path class="st2" d="M12.1,172.7c0.2,0,0.4,0,0.5,0c0,0.4,0,0.8,0,1.2c-0.2,0.2-0.4,0.2-0.5,0C12.1,173.5,12.1,173.1,12.1,172.7z"
		/>
	<path class="st1" d="M12.1,173.9c0.2,0,0.3,0,0.5,0c0.1,0.5,0.2,1-0.5,1.2C12.1,174.7,12.1,174.3,12.1,173.9z"/>
	<path d="M317.8,154.3c-0.6-18.4-5.4-35.7-12.8-52.4c-9.3-20.8-22.8-38.6-40.2-53.5c-22.9-19.6-49.2-31.6-79.1-35.6
		c-3.1-0.4-6.3-0.2-9.4-0.7c-0.4,0-0.8,0-1.2,0c-0.4,0.4-0.9,0.3-1.4,0.3c-0.4,0-0.8,0-1.1,0c-0.7-0.1-1.5,0.3-2.2-0.3
		c-3.6,0-7.2,0-10.7,0c-0.7,0.6-1.5,0.2-2.2,0.3c-0.4,0-0.8,0-1.1,0c-0.5,0-1,0.1-1.4-0.3c-0.6,0-1.2,0-1.8,0
		c-4.3,0.6-8.7,0.5-13,1.3c-36.4,6.4-66.9,23.4-91.2,51.3C30,86.3,18.3,111.4,13.4,139.7c-0.7,4.2-0.6,8.5-1.3,12.7
		c0,0.8,0,1.6,0,2.4c0.4,0.4,0.3,0.9,0.3,1.4c0,0.4,0,0.8,0,1.1c-0.1,0.7,0.3,1.5-0.3,2.2c0,3.6,0,7.2,0,10.7
		c0.6,0.7,0.2,1.5,0.3,2.2c0,0.4,0,0.8,0,1.1c0,0.5,0.1,1-0.3,1.4c0,0.8,0,1.6,0,2.4c0.7,6.3,1,12.6,2.4,18.8
		c7.5,33.8,24.2,62.2,50.3,84.9c14.8,12.9,31.5,22.5,50.1,28.9c12.8,4.4,26,7.4,39.6,7.7c11.9,0.3,23.8,0.6,35.7-1.4
		c36.3-6.3,66.6-23.5,90.9-51.3c17.9-20.6,29.3-44.3,34.6-71C318.4,180.9,318.2,167.6,317.8,154.3z M165,294
		c-71.2,0.1-129.2-57.9-129.1-129.1c0-71.2,57.6-128.8,128.9-129.1c71-0.3,129.1,57.6,129.3,129C294.2,235.9,236.2,293.9,165,294z"
		/>
	<path d="M201.4,175.7c-7.4,0-14.7,0.1-22.1-0.1c-2.2,0-2.6,0.6-2.5,2.7c0.1,14.6,0.1,29.2,0,43.9c0,7.2-4.7,12.4-11.2,12.6
		c-7.3,0.3-12.5-4.9-12.5-12.8c0-14.2-0.1-28.4,0.1-42.7c0-2.9-0.5-3.8-3.6-3.7c-14.6,0.2-29.2,0.1-43.9,0.1c-5.7,0-10-3.7-11.4-9.2
		c-1.2-4.9,1.1-10.2,5.5-12.8c2.5-1.5,5.2-1.7,8-1.7c14.1,0,28.2,0,42.4,0.1c2.3,0,3-0.5,2.9-2.9c-0.1-14.5-0.1-29,0-43.6
		c0-8.7,7.1-14.4,15-12.3c5.3,1.4,8.7,6.1,8.7,12.4c0,14.4,0.1,28.8-0.1,43.3c0,2.5,0.7,3.1,3.1,3c14.2-0.1,28.4-0.1,42.7-0.1
		c6.4,0,10.7,2.7,12.6,7.6c2.9,7.6-2.5,15.8-10.8,16C216.7,175.8,209,175.6,201.4,175.7C201.4,175.7,201.4,175.7,201.4,175.7z"/>
</g>
</svg>
