<?xml version="1.0" encoding="utf-8"?>
<!-- Generator: Adobe Illustrator 23.1.0, SVG Export Plug-In . SVG Version: 6.00 Build 0)  -->
<svg version="1.1" id="Camada_1" xmlns="http://www.w3.org/2000/svg" xmlns:xlink="http://www.w3.org/1999/xlink" x="0px" y="0px"
	 viewBox="0 0 330.1 330.2" style="enable-background:new 0 0 330.1 330.2;" xml:space="preserve">
<g>
	<path d="M7.3,7.4c10.6,0,21.1,0.1,31.7,0c2.1,0,3.1,0.3,2.9,2.8c-0.3,3-0.2,6,0,8.9c0.1,1.7-0.4,2.3-2.2,2.2
		c-5.3-0.1-10.7,0-16-0.1c-2,0-2.7,0.5-2.6,2.6c0.1,5.3,0,10.7,0.1,16c0,1.7-0.3,2.3-2.2,2.3c-3.9-0.2-7.8-0.1-11.7-0.1
		C7.3,30.4,7.3,18.9,7.3,7.4z"/>
	<path d="M7.3,288.3c4,0,8,0,12-0.1c1.5,0,1.9,0.5,1.9,1.9c-0.1,5.4,0.1,10.9-0.1,16.3c0,2,0.6,2.6,2.6,2.6c5.3-0.1,10.7,0,16-0.1
		c1.7,0,2.3,0.4,2.3,2.2c-0.2,3.9-0.1,7.8-0.1,11.7c-10.9,0-21.8,0-32.7,0c-1.5,0-1.9-0.3-1.9-1.9C7.4,310.1,7.3,299.2,7.3,288.3z"
		/>
	<path d="M288.3,322.8c0-3.9,0-7.8-0.1-11.7c-0.1-1.8,0.6-2.2,2.3-2.2c5.3,0.1,10.7-0.1,16,0.1c2.1,0.1,2.6-0.6,2.6-2.6
		c-0.1-5.3,0-10.7-0.1-16c0-1.8,0.5-2.3,2.2-2.2c3.2,0.1,6.4,0.2,9.5,0c1.9-0.1,2.1,0.7,2.1,2.3c-0.1,10.8,0,21.6,0,32.3
		C311.3,322.8,299.8,322.8,288.3,322.8z"/>
	<path d="M7.3,91.2c3.8,0,7.6,0.1,11.4,0c1.7,0,2.5,0.2,2.5,2.3c-0.1,14.9-0.1,29.9,0,44.8c0,1.7-0.4,2.3-2.2,2.2
		c-3.9-0.1-7.8,0-11.7,0C7.3,124,7.3,107.6,7.3,91.2z"/>
	<path d="M7.3,189.7c4,0,8,0.1,12,0c1.5,0,1.9,0.4,1.9,1.9c0,15.2-0.1,30.3,0,45.5c0,1.8-0.7,2-2.2,1.9c-3.9-0.1-7.8,0-11.7,0
		C7.3,222.6,7.3,206.2,7.3,189.7z"/>
	<path d="M91.1,322.8c0-3.8,0.1-7.6,0-11.4c0-1.7,0.2-2.5,2.3-2.5c14.9,0.1,29.9,0.1,44.8,0c1.7,0,2.3,0.4,2.2,2.2
		c-0.1,3.9,0,7.8,0,11.7C124,322.8,107.6,322.8,91.1,322.8z"/>
	<path d="M189.7,322.8c0-4,0.1-8,0-12c0-1.5,0.4-1.9,1.9-1.9c15.2,0,30.3,0.1,45.5,0c1.8,0,2,0.7,1.9,2.2c-0.1,3.9,0,7.8,0,11.7
		C222.6,322.8,206.1,322.8,189.7,322.8z"/>
	<path d="M262,93.9c0.3,6.6-2.6,12.4-7.7,17.4c-18.5,18.4-36.9,36.9-55.4,55.3c-1.9,1.9-1.9,2.8,0,4.7
		c18.5,18.4,36.9,36.8,55.4,55.3c7,7,9.6,15.1,6.3,24.7c-4.8,14-22.7,19.3-34.4,10.1c-1.4-1.1-2.8-2.4-4.1-3.7
		c-18.4-18.4-36.8-36.7-55.1-55.1c-1.6-1.6-2.4-1.7-4,0c-18.5,18.7-37.1,37.2-55.7,55.8c-8.4,8.4-18.7,10-28.3,4.5
		c-11.5-6.5-14.6-22.8-6.1-33c1.2-1.4,2.4-2.8,3.7-4.1c18.2-18.2,36.4-36.5,54.7-54.6c1.6-1.6,1.8-2.5,0.1-4.2
		c-18.6-18.4-37-37-55.6-55.5c-6.3-6.3-9.1-13.6-7-22.3c3.9-16.5,24.8-23.6,38.6-9.6c18.1,18.4,36.5,36.6,54.8,54.9
		c2.9,2.9,2.9,2.9,5.7,0c18.2-18.2,36.5-36.4,54.6-54.7c6.2-6.3,13.5-9.3,22.3-7.1C255,75.1,261.2,82.8,262,93.9z"/>
	<path d="M305.8,7.4c4.9,0,9.9,0.1,14.8,0c1.7,0,2.3,0.3,2.3,2.1c-0.1,10.2-0.1,20.3,0,30.5c0,1.7-0.5,2.1-2.1,2
		c-3.1-0.1-6.2-0.1-9.2,0c-1.9,0.1-2.7-0.4-2.6-2.5c0.2-5.1-0.1-10.3,0.1-15.4c0.1-2.2-0.4-3.1-2.8-3c-5.2,0.2-10.5,0-15.7,0.1
		c-1.7,0-2.4-0.3-2.3-2.2c0.2-3.3,0.1-6.6,0-9.9c0-1.5,0.4-1.9,1.9-1.9C295.3,7.4,300.6,7.4,305.8,7.4z"/>
	<path d="M116.1,7.4c7.3,0,14.5,0.1,21.8,0c1.9,0,2.7,0.3,2.6,2.4c-0.2,3.1-0.1,6.1,0,9.2c0.1,1.7-0.3,2.3-2.2,2.3
		c-15-0.1-29.9-0.1-44.9,0c-2,0-2.4-0.7-2.3-2.5c0.1-3.1,0.1-6.1,0-9.2c-0.1-1.7,0.4-2.2,2.2-2.2C100.9,7.4,108.5,7.4,116.1,7.4z"/>
	<path d="M214.4,21.2c-7.4,0-14.7,0-22.1,0c-1.8,0-2.8-0.2-2.6-2.4c0.3-3.7-0.3-7.5,0.4-11.3c3.7-0.1,7.3-0.2,11-0.2
		c11.8,0,23.6,0.1,35.3-0.1c2.2,0,2.8,0.6,2.7,2.7c-0.2,2.6-0.2,5.3,0,8c0.2,2.5-0.4,3.3-3.1,3.3C228.8,21.1,221.6,21.2,214.4,21.2z
		"/>
	<path d="M309,115.8c0-7.4,0.1-14.8,0-22.1c0-2.1,0.6-2.6,2.6-2.5c3.1,0.2,6.1,0.1,9.2,0c1.5-0.1,2.1,0.3,2.1,2
		c-0.1,15.2-0.1,30.3,0,45.5c0,1.5-0.5,1.9-1.9,1.8c-3.3-0.1-6.6-0.1-9.8,0c-1.8,0.1-2.2-0.6-2.1-2.3C309,130.8,309,123.3,309,115.8
		z"/>
	<path d="M309,214c0-7.4,0.1-14.8,0-22.1c0-1.7,0.4-2.3,2.2-2.2c3.3,0.1,6.6,0.1,9.8,0c1.5,0,1.9,0.4,1.9,1.9
		c0,15.2-0.1,30.3,0,45.5c0,1.8-0.7,2-2.2,1.9c-3.2-0.1-6.4-0.1-9.5,0c-1.8,0.1-2.2-0.5-2.2-2.2C309,229.2,309,221.6,309,214z"/>
</g>
</svg>
