<?xml version="1.0" encoding="utf-8"?>
<!-- Generator: Adobe Illustrator 23.1.0, SVG Export Plug-In . SVG Version: 6.00 Build 0)  -->
<svg version="1.1" id="bold" xmlns="http://www.w3.org/2000/svg" xmlns:xlink="http://www.w3.org/1999/xlink" x="0px" y="0px"
	 viewBox="0 0 512 512" style="enable-background:new 0 0 512 512;" xml:space="preserve">
<style type="text/css">
	.st0{fill:#FFFFFF;}
</style>
<g>
	<path class="st0" d="M490.7,185.5c-11.8,0-21.3-9.6-21.3-21.3V63.1c0-11.2-9.2-20.4-20.4-20.4H347.8c-11.8,0-21.3-9.6-21.3-21.3
		S336,0,347.8,0H449c34.8,0,63,28.3,63,63.1v101.1C512,176,502.5,185.5,490.7,185.5z"/>
</g>
<g>
	<path class="st0" d="M21.3,185.5C9.5,185.5,0,176,0,164.2V63.1C0,28.3,28.3,0,63,0h101.1c11.8,0,21.3,9.6,21.3,21.3
		s-9.5,21.3-21.3,21.3H63c-11.2,0-20.4,9.2-20.4,20.4v101.1C42.7,176,33.1,185.5,21.3,185.5z"/>
</g>
<g>
	<path class="st0" d="M449,512H347.8c-11.8,0-21.3-9.6-21.3-21.3s9.5-21.3,21.3-21.3H449c11.2,0,20.4-9.2,20.4-20.4V347.8
		c0-11.8,9.5-21.3,21.3-21.3c11.8,0,21.3,9.6,21.3,21.3v101.1C512,483.7,483.7,512,449,512z"/>
</g>
<g>
	<path class="st0" d="M164.2,512H63c-34.8,0-63-28.3-63-63.1V347.8c0-11.8,9.5-21.3,21.3-21.3s21.3,9.6,21.3,21.3v101.1
		c0,11.2,9.2,20.4,20.4,20.4h101.1c11.8,0,21.3,9.6,21.3,21.3S176,512,164.2,512L164.2,512z"/>
</g>
<g>
	<path class="st0" d="M202.2,238.1H96c-11.8,0-21.3-9.6-21.3-21.3V96c0-11.8,9.5-21.3,21.3-21.3h106.2c11.8,0,21.3,9.6,21.3,21.3
		v120.7C223.5,228.5,214,238.1,202.2,238.1z M117.3,195.4h63.5v-78.1h-63.5V195.4z"/>
</g>
<g>
	<path class="st0" d="M416,437.3H314.7c-11.8,0-21.3-9.6-21.3-21.3v-67.9c0-11.8,9.5-21.3,21.3-21.3c11.8,0,21.3,9.6,21.3,21.3v46.5
		h58.7v-64h-25.2c-11.8,0-21.3-9.6-21.3-21.3s9.5-21.3,21.3-21.3H416c11.8,0,21.3,9.6,21.3,21.3V416
		C437.3,427.8,427.8,437.3,416,437.3z"/>
</g>
<g>
	<path class="st0" d="M416,204.6h-87.3c-11.8,0-21.3-9.6-21.3-21.3V96c0-11.8,9.5-21.3,21.3-21.3H416c11.8,0,21.3,9.6,21.3,21.3
		v87.3C437.3,195.1,427.8,204.6,416,204.6z M350.1,161.9h44.6v-44.6h-44.6V161.9z"/>
</g>
<g>
	<path class="st0" d="M266.2,301.6H96c-11.8,0-21.3-9.6-21.3-21.3s9.5-21.3,21.3-21.3h148.9V115.4c0-11.8,9.5-21.3,21.3-21.3
		c11.8,0,21.3,9.6,21.3,21.3v164.8C287.5,292,278,301.6,266.2,301.6z"/>
</g>
<g>
	<path class="st0" d="M325.3,296.2c-11.8,0-21.3-9.6-21.3-21.3v-29.1c0-11.8,9.5-21.3,21.3-21.3h96c11.8,0,21.3,9.6,21.3,21.3
		s-9.5,21.3-21.3,21.3h-74.7v7.7C346.7,286.7,337.1,296.2,325.3,296.2z"/>
</g>
<g>
	<path class="st0" d="M256.5,409.6c-11.8,0-21.3-9.6-21.3-21.3v-48.5c0-11.8,9.5-21.3,21.3-21.3c11.8,0,21.3,9.6,21.3,21.3v48.5
		C277.8,400.1,268.3,409.6,256.5,409.6z"/>
</g>
<g>
	<path class="st0" d="M197.3,437.3H96c-11.8,0-21.3-9.6-21.3-21.3v-77.6c0-11.8,9.5-21.3,21.3-21.3h101.3c11.8,0,21.3,9.6,21.3,21.3
		V416C218.7,427.8,209.1,437.3,197.3,437.3z M117.3,394.7H176v-34.9h-58.7V394.7z"/>
</g>
</svg>
