<?xml version="1.0" encoding="utf-8"?>
<!-- Generator: Adobe Illustrator 23.1.0, SVG Export Plug-In . SVG Version: 6.00 Build 0)  -->
<svg version="1.1" id="Camada_1" xmlns="http://www.w3.org/2000/svg" xmlns:xlink="http://www.w3.org/1999/xlink" x="0px" y="0px"
	 viewBox="0 0 330.1 330.2" style="enable-background:new 0 0 330.1 330.2;" xml:space="preserve">
<style type="text/css">
	.st0{fill:#030104;}
</style>
<g>
	<path class="st0" d="M298.4,137.9c-5.7-5.4-12.1-10-19-13.7c-9.7-5.3-23.9-4.2-31.6,7.4c-2.1,3.1-4.4,6.1-6.6,9.2
		c-1.7,2.3-2.5,4.8-1.9,7.6c0.4,1.5-0.1,1.9-1.4,2c-3,0.4-5.2,2.1-7,4.6c-25.3,35.1-50.7,70.2-76.1,105.2c-1.8,2.5-2.7,5-2.2,8.1
		c0.1,0.8,0.6,1.6-0.6,2.2c-3.7,1.9-4.2,5.4-3.9,9.2c0.8,9,1.7,18,2.1,27c0.2,5.2,1.7,9.2,6.7,11.5c1.4,0,2.8,0,4.2,0
		c10.1-2.8,20.2-5.6,30.3-8.3c2.7-0.7,4.9-2.1,6-4.8c0.3-0.8,0.5-1.4,1.6-1.4c4.6,0.4,7.5-2.2,10-5.7c25-34.6,50-69.2,75-103.8
		c2.2-3.1,3.5-6.2,2.6-9.9c3.7-0.9,6.7-2.6,8.8-5.9c1.7-2.8,3.8-5.3,5.7-8C308.9,159.8,308,146.9,298.4,137.9z M165.5,264.6
		c24.4-33.7,48.8-67.4,73.1-101.1c1-1.3,1.6-1.5,2.9-0.5c3.1,2.5,6.4,4.7,9.6,7c0.5,0.4,1.1,0.7,1.3,1.4c-0.5,0.7-0.9,1.3-1.3,1.9
		c-23.8,33.7-47.6,67.4-71.4,101.2c-1.2,1.7-1.9,1.9-3.6,0.7c-3.3-2.6-6.7-5-10.1-7.3C164.7,266.8,164.4,266.1,165.5,264.6z
		 M161.6,306.2c-0.6-6.8-1.1-13.5-1.7-20.9c7.2,5.2,14.1,10.1,21.5,15.5C174.4,302.7,168.1,304.5,161.6,306.2z M273.9,188.9
		c-24.4,33.8-48.8,67.5-73.2,101.3c-1,1.4-1.7,1.3-3,0.4c-2.7-2.1-5.5-4.3-8.4-6.1c-2-1.2-1.8-2.1-0.6-3.8
		c17.9-25.2,35.7-50.5,53.6-75.8c5.9-8.4,11.9-16.8,17.8-25.3c1.2-1.7,2-1.9,3.7-0.6c3.1,2.5,6.4,4.7,9.6,7c0.5,0.4,1,0.8,1.7,1.3
		C274.6,188,274.2,188.4,273.9,188.9z M291.5,164.5c-1.8,2.5-3.2,6.5-5.7,6.9c-2.2,0.3-4.8-3-7.2-4.8c-8.6-6.2-17.2-12.5-25.8-18.6
		c-1.5-1.1-1.9-1.8-0.6-3.4c1.8-2.1,3.3-4.5,4.9-6.7c2.8-3.8,5.7-5.3,10.4-5.3c3.3,0,6.2,1,8.9,2.9c4,2.9,8.1,5.7,12.1,8.7
		C296,149.9,297.1,157,291.5,164.5z"/>
	<path class="st0" d="M248.2,27.1c0.1-9.3-6.5-14.5-14.3-14.4c-41.4,0.2-82.9,0.2-124.3,0.1c-7.7,0-13.5,3-18.1,9.1
		C71.4,48.6,51.3,75.3,31.1,102c-4.1,5.4-6,11.3-6,18c0.1,27.8,0,55.7,0,83.5c0,28,0,56.1,0,84.1c0,10.2,4.7,14.8,15,14.8
		c19.2,0,38.4,0,57.5,0c12.6,0,25.2-0.1,37.9,0.1c2.4,0,3.1-0.7,2.9-3c-0.2-2.3-0.3-4.6,0-6.8c0.4-3-0.9-3.5-3.6-3.5
		c-31,0.1-62,0-93,0.1c-2.8,0-3.6-0.6-3.6-3.5c0.1-54.6,0.1-109.1,0-163.7c0-3,0.9-3.5,3.6-3.5c17.6,0.1,35.2,0,52.8,0.1
		c3.6,0,6.9-0.7,9.6-3.2c3.2-2.9,4.1-6.6,4.1-10.8c0-25.3,0-50.7-0.1-76c0-2.3,0.6-2.7,2.8-2.7c40.4,0.1,80.9,0.1,121.3,0
		c2.2,0,2.8,0.5,2.8,2.7C234.9,45.3,235,62,235,78.7c0,14.4,0,28.8,0,43.2c0,1.9,0.5,2.6,2.5,2.5c2.6-0.2,5.2-0.2,7.7,0
		c2.5,0.2,3.1-0.6,3-3.1C248.1,90,247.9,58.6,248.2,27.1z M92,105.6c-15.5-0.1-31-0.1-47.1-0.1c16.8-22.3,33.2-44,49.7-65.9
		c0.7,1,0.5,1.9,0.5,2.7c0,20,0,40.1,0.1,60.1C95.2,105,94.4,105.6,92,105.6z"/>
</g>
</svg>
